<?xml version='1.0' encoding='UTF-8'?>
<!DOCTYPE svg PUBLIC "-//W3C//DTD SVG 1.0//EN" "http://www.w3.org/TR/2001/REC-SVG-20010904/DTD/svg10.dtd">
<svg viewBox="0 0 832 680" xmlns="http://www.w3.org/2000/svg" xmlns:inkspace="http://www.inkscape.org/namespaces/inkscape" xmlns:xlink="http://www.w3.org/1999/xlink">
  <defs id="defs_block">
    <filter height="1.504" id="filter_blur" inkspace:collect="always" width="1.1575" x="-0.07875" y="-0.252">
      <feGaussianBlur id="feGaussianBlur3780" inkspace:collect="always" stdDeviation="4.2" />
    </filter>
  </defs>
  <title>blockdiag</title>
  <desc>blockdiag {
  "ssh private key" -&gt; crypttool -&gt; Paas -&gt; operator;
  "Public key" -&gt; crypttool;
  "Private key" -&gt; operator;
  operator -&gt; "ArgoCD quota";
  operator -&gt; "ArgoCD namespace" -&gt; secret -&gt; "ArgoCD repo (secret)";
  operator -&gt; "...";

  "ssh private key" [color = "greenyellow", shape = flowchart.input, stacked];
  "secret" [color = "greenyellow", stacked];
  "Public key" [color = "pink", shape = flowchart.input];
  "Private key" [color = "pink", shape = flowchart.input];
  "crypttool" [color = "lightblue"];
  "operator" [color = "lightblue"];
  group input {
      color = "#FF0000";
      shape = line;
      style = dashed;
      orientation = portrait
      "ssh private key", crypttool, Paas, "Public key";
  }
  group operator {
      orientation = portrait
      operator, "Private key";
  }
  group output {
          color = "#FF0000";
          shape = line;
          style = dashed;
          orientation = portrait
          "ArgoCD namespace", secret, "ArgoCD repo (secret)";
       }
}
</desc>
  <rect fill="rgb(243,152,0)" height="140" style="filter:url(#filter_blur)" width="144" x="440" y="190" />
  <polygon fill="rgb(0,0,0)" points="99,54 203,54 179,94 75,94 99,54" stroke="rgb(0,0,0)" style="filter:url(#filter_blur);opacity:0.7;fill-opacity:1" />
  <polygon fill="rgb(0,0,0)" points="95,50 199,50 175,90 71,90 95,50" stroke="rgb(0,0,0)" style="filter:url(#filter_blur);opacity:0.7;fill-opacity:1" />
  <polygon fill="rgb(0,0,0)" points="91,46 195,46 171,86 67,86 91,46" stroke="rgb(0,0,0)" style="filter:url(#filter_blur);opacity:0.7;fill-opacity:1" />
  <polygon fill="rgb(0,0,0)" points="283,46 387,46 363,86 259,86 283,46" stroke="rgb(0,0,0)" style="filter:url(#filter_blur);opacity:0.7;fill-opacity:1" />
  <rect fill="rgb(0,0,0)" height="40" stroke="rgb(0,0,0)" style="filter:url(#filter_blur);opacity:0.7;fill-opacity:1" width="128" x="67" y="126" />
  <rect fill="rgb(0,0,0)" height="40" stroke="rgb(0,0,0)" style="filter:url(#filter_blur);opacity:0.7;fill-opacity:1" width="128" x="67" y="206" />
  <rect fill="rgb(0,0,0)" height="40" stroke="rgb(0,0,0)" style="filter:url(#filter_blur);opacity:0.7;fill-opacity:1" width="128" x="451" y="286" />
  <polygon fill="rgb(0,0,0)" points="475,206 579,206 555,246 451,246 475,206" stroke="rgb(0,0,0)" style="filter:url(#filter_blur);opacity:0.7;fill-opacity:1" />
  <rect fill="rgb(0,0,0)" height="40" stroke="rgb(0,0,0)" style="filter:url(#filter_blur);opacity:0.7;fill-opacity:1" width="128" x="643" y="286" />
  <rect fill="rgb(0,0,0)" height="40" stroke="rgb(0,0,0)" style="filter:url(#filter_blur);opacity:0.7;fill-opacity:1" width="128" x="643" y="366" />
  <rect fill="rgb(0,0,0)" height="40" stroke="rgb(0,0,0)" style="filter:url(#filter_blur);opacity:0.7;fill-opacity:1" width="128" x="651" y="454" />
  <rect fill="rgb(0,0,0)" height="40" stroke="rgb(0,0,0)" style="filter:url(#filter_blur);opacity:0.7;fill-opacity:1" width="128" x="647" y="450" />
  <rect fill="rgb(0,0,0)" height="40" stroke="rgb(0,0,0)" style="filter:url(#filter_blur);opacity:0.7;fill-opacity:1" width="128" x="643" y="446" />
  <rect fill="rgb(0,0,0)" height="40" stroke="rgb(0,0,0)" style="filter:url(#filter_blur);opacity:0.7;fill-opacity:1" width="128" x="643" y="526" />
  <rect fill="rgb(0,0,0)" height="40" stroke="rgb(0,0,0)" style="filter:url(#filter_blur);opacity:0.7;fill-opacity:1" width="128" x="643" y="606" />
  <polygon fill="rgb(173,255,47)" points="96,48 200,48 176,88 72,88 96,48" stroke="rgb(0,0,0)" />
  <polygon fill="rgb(173,255,47)" points="92,44 196,44 172,84 68,84 92,44" stroke="rgb(0,0,0)" />
  <polygon fill="rgb(173,255,47)" points="88,40 192,40 168,80 64,80 88,40" stroke="rgb(0,0,0)" />
  <text fill="rgb(0,0,0)" font-family="sans-serif" font-size="11" font-style="normal" font-weight="normal" text-anchor="middle" textLength="78" x="128.0" y="59">ssh private ke</text>
  <text fill="rgb(0,0,0)" font-family="sans-serif" font-size="11" font-style="normal" font-weight="normal" text-anchor="middle" textLength="8" x="128.0" y="74">y</text>
  <polygon fill="rgb(255,192,203)" points="280,40 384,40 360,80 256,80 280,40" stroke="rgb(0,0,0)" />
  <text fill="rgb(0,0,0)" font-family="sans-serif" font-size="11" font-style="normal" font-weight="normal" text-anchor="middle" textLength="58" x="320.0" y="67">Public key</text>
  <rect fill="rgb(173,216,230)" height="40" stroke="rgb(0,0,0)" width="128" x="64" y="120" />
  <text fill="rgb(0,0,0)" font-family="sans-serif" font-size="11" font-style="normal" font-weight="normal" text-anchor="middle" textLength="51" x="128.5" y="147">crypttool</text>
  <rect fill="rgb(255,255,255)" height="40" stroke="rgb(0,0,0)" width="128" x="64" y="200" />
  <text fill="rgb(0,0,0)" font-family="sans-serif" font-size="11" font-style="normal" font-weight="normal" text-anchor="middle" textLength="26" x="128.0" y="226">Paas</text>
  <rect fill="rgb(173,216,230)" height="40" stroke="rgb(0,0,0)" width="128" x="448" y="280" />
  <text fill="rgb(0,0,0)" font-family="sans-serif" font-size="11" font-style="normal" font-weight="normal" text-anchor="middle" textLength="49" x="512.5" y="307">operator</text>
  <polygon fill="rgb(255,192,203)" points="472,200 576,200 552,240 448,240 472,200" stroke="rgb(0,0,0)" />
  <text fill="rgb(0,0,0)" font-family="sans-serif" font-size="11" font-style="normal" font-weight="normal" text-anchor="middle" textLength="64" x="512.0" y="227">Private key</text>
  <rect fill="rgb(255,255,255)" height="40" stroke="rgb(0,0,0)" width="128" x="640" y="280" />
  <text fill="rgb(0,0,0)" font-family="sans-serif" font-size="11" font-style="normal" font-weight="normal" text-anchor="middle" textLength="81" x="704.5" y="307">ArgoCD quota</text>
  <rect fill="rgb(255,255,255)" height="40" stroke="rgb(0,0,0)" width="128" x="640" y="360" />
  <text fill="rgb(0,0,0)" font-family="sans-serif" font-size="11" font-style="normal" font-weight="normal" text-anchor="middle" textLength="111" x="704.5" y="387">ArgoCD namespace</text>
  <rect fill="rgb(173,255,47)" height="40" stroke="rgb(0,0,0)" width="128" x="648" y="448" />
  <rect fill="rgb(173,255,47)" height="40" stroke="rgb(0,0,0)" width="128" x="644" y="444" />
  <rect fill="rgb(173,255,47)" height="40" stroke="rgb(0,0,0)" width="128" x="640" y="440" />
  <text fill="rgb(0,0,0)" font-family="sans-serif" font-size="11" font-style="normal" font-weight="normal" text-anchor="middle" textLength="35" x="704.5" y="466">secret</text>
  <rect fill="rgb(255,255,255)" height="40" stroke="rgb(0,0,0)" width="128" x="640" y="520" />
  <text fill="rgb(0,0,0)" font-family="sans-serif" font-size="11" font-style="normal" font-weight="normal" text-anchor="middle" textLength="121" x="704.5" y="547">ArgoCD repo (secret)</text>
  <rect fill="rgb(255,255,255)" height="40" stroke="rgb(0,0,0)" width="128" x="640" y="600" />
  <text fill="rgb(0,0,0)" font-family="sans-serif" font-size="11" font-style="normal" font-weight="normal" text-anchor="middle" textLength="11" x="704.5" y="626">...</text>
  <path d="M 128 88 L 128 112" fill="none" stroke="rgb(0,0,0)" />
  <polygon fill="rgb(0,0,0)" points="128,119 124,112 132,112 128,119" stroke="rgb(0,0,0)" />
  <path d="M 128 160 L 128 192" fill="none" stroke="rgb(0,0,0)" />
  <polygon fill="rgb(0,0,0)" points="128,199 124,192 132,192 128,199" stroke="rgb(0,0,0)" />
  <path d="M 128 240 L 128 260" fill="none" stroke="rgb(0,0,0)" />
  <path d="M 128 260 L 512 260" fill="none" stroke="rgb(0,0,0)" />
  <path d="M 512 260 L 512 272" fill="none" stroke="rgb(0,0,0)" />
  <polygon fill="rgb(0,0,0)" points="512,279 508,272 516,272 512,279" stroke="rgb(0,0,0)" />
  <path d="M 320 80 L 320 100" fill="none" stroke="rgb(0,0,0)" />
  <path d="M 128 100 L 320 100" fill="none" stroke="rgb(0,0,0)" />
  <path d="M 128 100 L 128 112" fill="none" stroke="rgb(0,0,0)" />
  <polygon fill="rgb(0,0,0)" points="128,119 124,112 132,112 128,119" stroke="rgb(0,0,0)" />
  <path d="M 576 300 L 632 300" fill="none" stroke="rgb(0,0,0)" />
  <polygon fill="rgb(0,0,0)" points="639,300 632,296 632,304 639,300" stroke="rgb(0,0,0)" />
  <path d="M 512 320 L 512 340" fill="none" stroke="rgb(0,0,0)" />
  <path d="M 512 340 L 704 340" fill="none" stroke="rgb(0,0,0)" />
  <path d="M 704 340 L 704 352" fill="none" stroke="rgb(0,0,0)" />
  <polygon fill="rgb(0,0,0)" points="704,359 700,352 708,352 704,359" stroke="rgb(0,0,0)" />
  <path d="M 512 320 L 512 340" fill="none" stroke="rgb(0,0,0)" />
  <path d="M 512 340 L 608 340" fill="none" stroke="rgb(0,0,0)" />
  <path d="M 608 340 L 608 580" fill="none" stroke="rgb(0,0,0)" />
  <path d="M 608 580 L 704 580" fill="none" stroke="rgb(0,0,0)" />
  <path d="M 704 580 L 704 592" fill="none" stroke="rgb(0,0,0)" />
  <polygon fill="rgb(0,0,0)" points="704,599 700,592 708,592 704,599" stroke="rgb(0,0,0)" />
  <path d="M 512 240 L 512 272" fill="none" stroke="rgb(0,0,0)" />
  <polygon fill="rgb(0,0,0)" points="512,279 508,272 516,272 512,279" stroke="rgb(0,0,0)" />
  <path d="M 704 400 L 704 432" fill="none" stroke="rgb(0,0,0)" />
  <polygon fill="rgb(0,0,0)" points="704,439 700,432 708,432 704,439" stroke="rgb(0,0,0)" />
  <path d="M 704 488 L 704 512" fill="none" stroke="rgb(0,0,0)" />
  <polygon fill="rgb(0,0,0)" points="704,519 700,512 708,512 704,519" stroke="rgb(0,0,0)" />
  <rect fill="none" height="220" stroke="rgb(255,0,0)" stroke-dasharray="12" stroke-width="3" width="336" x="56" y="30" />
  <rect fill="none" height="220" stroke="rgb(255,0,0)" stroke-dasharray="12" stroke-width="3" width="144" x="632" y="350" />
</svg>
